<?xml version="1.0" encoding="utf-8"?>
<!-- Generator: Adobe Illustrator 27.6.1, SVG Export Plug-In . SVG Version: 6.00 Build 0)  -->
<svg version="1.1" id="Layer_1" xmlns="http://www.w3.org/2000/svg" xmlns:xlink="http://www.w3.org/1999/xlink" x="0px" y="0px"
	 viewBox="0 0 1200 1200" style="enable-background:new 0 0 1200 1200;" xml:space="preserve">
<style type="text/css">
	.st0{fill:#AA00AA;}
</style>
<g>
	<g>
		<path class="st0" d="M133.06,205.36h798.34c24.62,0,46.1,13.38,57.61,33.26h71.26c-14.77-57.39-66.87-99.79-128.86-99.79H133.06
			C59.57,138.83,0,198.4,0,271.88v533.46C0,878.82,59.57,938.4,133.06,938.4l606.14-1.23v-66.53l-606.14,1.23
			c-36.74,0-66.53-29.79-66.53-66.53V271.88C66.53,235.14,96.31,205.36,133.06,205.36z"/>
	</g>
	<path class="st0" d="M1076.92,261.17H892.31c-67.97,0-123.08,55.1-123.08,123.08V938.1c0,67.97,55.1,123.08,123.08,123.08h184.62
		c67.97,0,123.08-55.1,123.08-123.08V384.25C1200,316.28,1144.9,261.17,1076.92,261.17z M1169.23,938.1
		c0,50.98-41.33,92.31-92.31,92.31H892.31c-50.98,0-92.31-41.33-92.31-92.31V384.25c0-50.98,41.33-92.31,92.31-92.31h184.62
		c50.98,0,92.31,41.33,92.31,92.31V938.1z"/>
	<path class="st0" d="M784.62,845.79H323.08c-8.5,0-15.38-6.89-15.38-15.38l0,0c0-8.5,6.89-15.38,15.38-15.38h461.54
		c8.5,0,15.38,6.89,15.38,15.38l0,0C800,838.9,793.11,845.79,784.62,845.79z"/>
	<path class="st0" d="M1095.19,999.63H874.04c-6.9,0-12.5-5.6-12.5-12.5v-5.77c0-6.9,5.6-12.5,12.5-12.5h221.15
		c6.9,0,12.5,5.6,12.5,12.5v5.77C1107.69,994.04,1102.1,999.63,1095.19,999.63z"/>
	<path class="st0" d="M1033.65,353.48h-98.08c-6.9,0-12.5-5.6-12.5-12.5v-5.77c0-6.9,5.6-12.5,12.5-12.5h98.08
		c6.9,0,12.5,5.6,12.5,12.5v5.77C1046.15,347.88,1040.56,353.48,1033.65,353.48z"/>
</g>
</svg>
