<?xml version="1.0" encoding="utf-8"?>
<!-- Generator: Adobe Illustrator 27.6.1, SVG Export Plug-In . SVG Version: 6.00 Build 0)  -->
<svg version="1.1" id="Layer_1" xmlns="http://www.w3.org/2000/svg" xmlns:xlink="http://www.w3.org/1999/xlink" x="0px" y="0px"
	 viewBox="0 0 1200 1200" style="enable-background:new 0 0 1200 1200;" xml:space="preserve">
<style type="text/css">
	.st0{fill-rule:evenodd;clip-rule:evenodd;fill:#AA00AA;}
</style>
<path class="st0" d="M1100,1100c55.23,0,100-44.77,100-100V400v0c0-55.23-44.77-100-100-100h0c0,0,0-100,0-100v0
	c0-55.23-44.77-100-100-100H200c-55.23,0-100,44.77-100,100v0v700H50c-27.61,0-50,22.39-50,50v0c0,27.61,22.39,50,50,50h50h100h200
	v0c0,55.23,44.77,100,100,100h0H1100z M400,600v300H250c-27.61,0-50-22.39-50-50V250c0-27.61,22.39-50,50-50h700
	c27.61,0,50,22.39,50,50v50c0,0-300,0-300,0h0c-55.23,0-100,44.77-100,100v100H500h0C444.77,500,400,544.77,400,600z M650,1000H550
	c-27.61,0-50-22.39-50-50V650c0-27.61,22.39-50,50-50h100c27.61,0,50,22.39,50,50v300C700,977.61,677.61,1000,650,1000z M1050,1000
	H800V600c0-55.23-44.77-100-100-100h0v-50c0-27.61,22.39-50,50-50h300c27.61,0,50,22.39,50,50v500
	C1100,977.61,1077.61,1000,1050,1000z"/>
<circle class="st0" cx="600" cy="900" r="50"/>
<circle class="st0" cx="900" cy="900" r="50"/>
</svg>
