<?xml version="1.0" encoding="utf-8"?>
<!-- Generator: Adobe Illustrator 27.3.1, SVG Export Plug-In . SVG Version: 6.00 Build 0)  -->
<svg version="1.1" id="Layer_1" xmlns="http://www.w3.org/2000/svg" xmlns:xlink="http://www.w3.org/1999/xlink" x="0px" y="0px"
	 viewBox="0 0 700 700" style="enable-background:new 0 0 700 700;" xml:space="preserve">
<style type="text/css">
	.st0{fill:#00AAAA;}
</style>
<g>
	<path class="st0" d="M604.2,244.7C536.5,177,446.3,139.4,350,139.4S163.5,177,95.8,244.7c-15.7,15.7-15.7,40.3,0,56
		c7.8,7.8,17.9,11.8,28,11.8s20.2-3.9,28-11.8c52.6-53.2,123.2-82.3,198.2-82.3s145.6,29.1,198.2,82.3c15.7,15.7,40.3,15.7,56,0
		C619.9,285,619.9,259.8,604.2,244.7L604.2,244.7z"/>
	<path class="st0" d="M201,350.6c-15.7,15.7-15.7,40.3,0,56c7.8,7.8,17.9,11.8,28,11.8s20.2-3.9,28-11.8C308.6,355,392,355,443,406
		c15.1,15.7,40.3,15.7,56,0c15.7-15.7,15.7-40.3,0-56C416.6,268.2,283.4,268.2,201,350.6L201,350.6z"/>
	<path class="st0" d="M412.2,499c0,34-27.6,61.6-61.6,61.6c-34,0-61.6-27.6-61.6-61.6c0-34,27.6-61.6,61.6-61.6
		C384.6,437.4,412.2,464.9,412.2,499"/>
</g>
</svg>
