<?xml version="1.0" encoding="utf-8"?>
<!-- Generator: Adobe Illustrator 27.6.1, SVG Export Plug-In . SVG Version: 6.00 Build 0)  -->
<svg version="1.1" id="Layer_1" xmlns="http://www.w3.org/2000/svg" xmlns:xlink="http://www.w3.org/1999/xlink" x="0px" y="0px"
	 viewBox="0 0 1200 1200" style="enable-background:new 0 0 1200 1200;" xml:space="preserve">
<style type="text/css">
	.st0{fill:#FF5555;}
</style>
<g>
	<path class="st0" d="M1194.71,768.43l-96.83-387.33c-24.49-97.95-112.1-166.35-213.06-166.35H314.88
		c-100.63,0-188.19,68.19-212.95,165.88L5.25,768.55c-13.08,52.48-1.48,107.02,31.82,149.64c33.3,42.62,83.42,67.06,137.51,67.06
		h0.12c80.23,0,149.84-54.35,169.29-132.18c4.93-19.7,22.55-33.46,42.85-33.46h426.45c20.3,0,37.93,13.76,42.85,33.46
		c19.46,77.82,89.07,132.18,169.29,132.18c54.12,0,104.25-24.46,137.55-67.12C1196.27,875.48,1207.84,820.92,1194.71,768.43z
		 M1110.51,877.18c-20.6,26.38-51.61,41.52-85.09,41.52c-49.62,0-92.68-33.62-104.72-81.76c-12.35-49.38-56.52-83.87-107.42-83.87
		H386.84c-50.9,0-95.07,34.49-107.42,83.87c-12.04,48.14-55.1,81.76-104.72,81.76h-0.12c-33.46,0-64.46-15.12-85.06-41.48
		c-20.6-26.36-27.77-60.1-19.68-92.57l96.67-387.87c17.23-67.99,78.24-115.47,148.37-115.47h569.94
		c70.36,0,131.42,47.68,148.49,115.94l96.83,387.33C1138.26,817.04,1131.1,850.79,1110.51,877.18z"/>
	<path class="st0" d="M464.52,441.06h-47.53c-5.76,0-10.43-4.68-10.43-10.43v-47.53c0-5.76-4.68-10.43-10.43-10.43h-47.87
		c-5.76,0-10.43,4.68-10.43,10.43v47.53c0,5.76-4.68,10.43-10.43,10.43h-48.22c-5.76,0-10.43,4.68-10.43,10.43v47.87
		c0,5.76,4.68,10.43,10.43,10.43h48.22c5.76,0,10.43,4.68,10.43,10.43v48.22c0,5.76,4.68,10.43,10.43,10.43h47.87
		c5.76,0,10.43-4.68,10.43-10.43v-48.22c0-5.76,4.68-10.43,10.43-10.43h47.53c5.76,0,10.43-4.68,10.43-10.43V451.5
		C474.95,445.73,470.27,441.06,464.52,441.06z"/>
	
		<ellipse transform="matrix(0.9732 -0.2298 0.2298 0.9732 -68.6944 195.9324)" class="st0" cx="807.04" cy="392.96" rx="41.41" ry="41.41"/>
	
		<ellipse transform="matrix(0.7071 -0.7071 0.7071 0.7071 -158.6042 734.2713)" class="st0" cx="807.04" cy="558.59" rx="41.41" ry="41.41"/>
	
		<ellipse transform="matrix(0.7071 -0.7071 0.7071 0.7071 -75.7899 768.5741)" class="st0" cx="889.86" cy="475.77" rx="41.41" ry="41.41"/>
	
		<ellipse transform="matrix(0.7071 -0.7071 0.7071 0.7071 -124.3014 651.457)" class="st0" cx="724.23" cy="475.77" rx="41.41" ry="41.41"/>
</g>
</svg>
