<?xml version="1.0" encoding="utf-8"?>
<!-- Generator: Adobe Illustrator 27.6.1, SVG Export Plug-In . SVG Version: 6.00 Build 0)  -->
<svg version="1.1" id="Layer_1" xmlns="http://www.w3.org/2000/svg" xmlns:xlink="http://www.w3.org/1999/xlink" x="0px" y="0px"
	 viewBox="0 0 1200 1200" style="enable-background:new 0 0 1200 1200;" xml:space="preserve">
<style type="text/css">
	.st0{fill:#AA00AA;}
</style>
<g>
	<path class="st0" d="M480.07,225c-78.71,0-142.53,42.54-142.53,95.02s63.81,95.02,142.53,95.02S622.6,372.5,622.6,320.02
		C622.59,267.54,558.78,225,480.07,225z M480.07,351.69c-26.24,0-47.51-14.18-47.51-31.67c0-17.49,21.27-31.67,47.51-31.67
		s47.51,14.18,47.51,31.67S506.31,351.69,480.07,351.69z"/>
	<g>
		<ellipse class="st0" cx="733.45" cy="689.95" rx="47.51" ry="31.67"/>
		<path class="st0" d="M733.45,436.57c-209.91,0-380.07,113.44-380.07,253.38s170.16,253.38,380.07,253.38
			s380.07-113.44,380.07-253.38S943.35,436.57,733.45,436.57z M733.45,784.97c-78.71,0-142.53-42.54-142.53-95.02
			c0-52.48,63.81-95.02,142.53-95.02s142.53,42.54,142.53,95.02C875.97,742.43,812.16,784.97,733.45,784.97z"/>
	</g>
	<path class="st0" d="M1113.18,679.19c-9.98,134-176.89,263.5-380.37,263.5c-200.05,0-364.4-127.17-379.35-257.98
		c-0.32,4.23-0.08,32.62-0.08,36.91C353.38,861.56,523.54,975,733.45,975s380.07-113.44,380.07-253.38
		C1113.51,715.05,1113.92,685.64,1113.18,679.19z"/>
	<g>
		<path class="st0" d="M843.76,425.44c10.63-23.34,16.37-48.09,16.37-73.75c0-6.57-0.38-13.08-1.11-19.53
			c-2.39,32.05-13.73,62.53-32.36,90.36C832.41,423.41,838.11,424.39,843.76,425.44z"/>
		<path class="st0" d="M369.18,561.92c-147.16-29.69-256.61-117.27-268.7-223.01c-0.32,4.23-0.48,8.49-0.48,12.77
			c0,109.47,104.13,202.72,249.96,238.14C355.6,580.25,362.03,570.94,369.18,561.92z"/>
	</g>
</g>
</svg>
