<?xml version="1.0" encoding="utf-8"?>
<!-- Generator: Adobe Illustrator 27.6.1, SVG Export Plug-In . SVG Version: 6.00 Build 0)  -->
<svg version="1.1" id="Layer_1" xmlns="http://www.w3.org/2000/svg" xmlns:xlink="http://www.w3.org/1999/xlink" x="0px" y="0px"
	 viewBox="0 0 1200 1200" style="enable-background:new 0 0 1200 1200;" xml:space="preserve">
<style type="text/css">
	.st0{fill:#AA00AA;}
</style>
<g>
	<path class="st0" d="M950,100H250c-55.23,0-100,44.77-100,100v700c0,55.23,44.77,100,100,100h625l-25-100l100,100l100,100v-100V900
		V200C1050,144.77,1005.23,100,950,100z M600,900c-193.3,0-350-156.7-350-350s156.7-350,350-350s350,156.7,350,350
		S793.3,900,600,900z"/>
	<path class="st0" d="M600,229.17c-177.19,0-320.83,143.64-320.83,320.83S422.81,870.83,600,870.83S920.83,727.19,920.83,550
		S777.19,229.17,600,229.17z M804.17,481.94H668.06V550h68.06v204.17h-68.06v-68.06H531.94v68.06h-68.06V550h68.06v-68.06H395.83
		V345.83h136.11v136.11h136.11V345.83h136.11V481.94z"/>
</g>
</svg>
