<?xml version="1.0" encoding="utf-8"?>
<!-- Generator: Adobe Illustrator 27.6.1, SVG Export Plug-In . SVG Version: 6.00 Build 0)  -->
<svg version="1.1" id="Layer_1" xmlns="http://www.w3.org/2000/svg" xmlns:xlink="http://www.w3.org/1999/xlink" x="0px" y="0px"
	 viewBox="0 0 1200 1200" style="enable-background:new 0 0 1200 1200;" xml:space="preserve">
<style type="text/css">
	.st0{fill:#FF5555;}
</style>
<g>
	<path class="st0" d="M1167.16,887.96l-552.07,209.26c-9.8,3.71-20.38,3.71-30.18,0L32.84,887.96C13.24,880.52,0,859.57,0,835.96v0
		c0-37.36,32-63.75,63.02-51.99L600,987.51l536.98-203.54c31.02-11.76,63.02,14.64,63.02,51.99v0
		C1200,859.57,1186.76,880.52,1167.16,887.96z"/>
	<path class="st0" d="M1167.16,659.39L615.09,868.65c-9.8,3.71-20.38,3.71-30.18,0L32.84,659.39C13.24,651.96,0,631,0,607.39v0
		c0-37.36,32-63.75,63.02-51.99L600,758.94l536.98-203.54c31.02-11.76,63.02,14.64,63.02,51.99v0
		C1200,631,1186.76,651.96,1167.16,659.39z"/>
	<path class="st0" d="M1167.16,429.67L615.09,638.93c-9.8,3.71-20.38,3.71-30.18,0L32.84,429.67C13.24,422.24,0,401.29,0,377.68v0
		c0-37.36,32-63.75,63.02-51.99L600,529.22l536.98-203.54c31.02-11.76,63.02,14.64,63.02,51.99v0
		C1200,401.29,1186.76,422.24,1167.16,429.67z"/>
	<path class="st0" d="M1167.16,312.04L615.09,102.79c-9.8-3.71-20.38-3.71-30.18,0L32.84,312.04C13.24,319.48,0,340.43,0,364.04v0
		c0,37.36,32,63.75,63.02,51.99L600,212.49l536.98,203.54c31.02,11.76,63.02-14.64,63.02-51.99v0
		C1200,340.43,1186.76,319.48,1167.16,312.04z"/>
</g>
</svg>
