<?xml version="1.0" encoding="utf-8"?>
<!-- Generator: Adobe Illustrator 27.6.1, SVG Export Plug-In . SVG Version: 6.00 Build 0)  -->
<svg version="1.1" id="Layer_1" xmlns="http://www.w3.org/2000/svg" xmlns:xlink="http://www.w3.org/1999/xlink" x="0px" y="0px"
	 viewBox="0 0 1200 1200" style="enable-background:new 0 0 1200 1200;" xml:space="preserve">
<style type="text/css">
	.st0{clip-path:url(#SVGID_00000139979710019395088790000016596098326257262234_);}
	.st1{fill:#00AAAA;}
	.st2{fill:none;stroke:#00AAAA;stroke-width:16;stroke-miterlimit:10;}
</style>
<g>
	<g>
		<defs>
			<path id="SVGID_1_" d="M171.71,1075h856.58c25.8,0,46.71-20.91,46.71-46.71V171.71c0-25.8-20.91-46.71-46.71-46.71H171.71
				c-25.8,0-46.71,20.91-46.71,46.71v856.58C125,1054.09,145.91,1075,171.71,1075z"/>
		</defs>
		<clipPath id="SVGID_00000176742598233593407440000006352723494263082420_">
			<use xlink:href="#SVGID_1_"  style="overflow:visible;"/>
		</clipPath>
		<g style="clip-path:url(#SVGID_00000176742598233593407440000006352723494263082420_);">
			<polygon class="st1" points="780,551 665,666 435,436 90,896 100,1075 1125,1071 1125,896 			"/>
			<circle class="st1" cx="867.5" cy="342.5" r="117.5"/>
		</g>
	</g>
</g>
<path class="st2" d="M171.71,1075h856.58c25.8,0,46.71-20.91,46.71-46.71V171.71c0-25.8-20.91-46.71-46.71-46.71H171.71
	c-25.8,0-46.71,20.91-46.71,46.71v856.58C125,1054.09,145.91,1075,171.71,1075z"/>
<path class="st1" d="M1149.94,1058.29h-22.91V943.72h22.91V806.23h-22.91V760.4h22.91v-91.66h-22.91v-45.83h22.91V485.43h-22.91
	v-68.74h22.91V302.11h-22.91v-68.74h22.91v-91.66h-22.91V118.8h22.91V50.05h-68.74v22.91H920.8V50.05H737.48v22.91h-45.83v22.91
	h-22.91v-22.9h-22.91V50.05h-68.74v22.91h-22.91V50.05h-68.74v45.83h-22.91V72.97h-22.91V50.05h-68.74v22.91h-68.74v22.91h-45.83
	v-22.9H95.88V50.05h-46l0.17,45.83h22.91v45.83H50.05v91.66h22.91v91.66h22.91v22.91H72.96v114.57H50.05v68.74h22.91v137.49H50.05
	v68.74h22.91v22.91h22.91v22.91H72.96v22.91H50.05v183.32h22.91v45.83H50.05v68.74h22.91v22.91h45.83v-22.91h45.83v22.91h22.91
	v22.91h91.66v-22.91h45.83v-22.91h45.83v22.91h68.74v-22.91h45.83v45.83h137.49v-22.91h22.91v22.91h68.74v-22.91h22.91v22.91H943.7
	v-22.91h114.57v22.91h45.83v-22.91h45.9L1149.94,1058.29z M1075,1028.29c0,25.8-20.91,46.71-46.71,46.71H171.71
	c-25.8,0-46.71-20.91-46.71-46.71V171.71c0-25.8,20.91-46.71,46.71-46.71h856.58c25.8,0,46.71,20.91,46.71,46.71V1028.29z"/>
</svg>
