<?xml version="1.0" encoding="utf-8"?>
<!-- Generator: Adobe Illustrator 27.7.0, SVG Export Plug-In . SVG Version: 6.00 Build 0)  -->
<svg version="1.1" id="Layer_1" xmlns="http://www.w3.org/2000/svg" xmlns:xlink="http://www.w3.org/1999/xlink" x="0px" y="0px"
	 viewBox="0 0 1200 1200" style="enable-background:new 0 0 1200 1200;" xml:space="preserve">
<style type="text/css">
	.st0{display:none;fill:#F5F5F5;}
	.st1{clip-path:url(#SVGID_00000032640424164163174310000015483770500934805130_);}
	.st2{fill:#00AAAA;}
	.st3{fill:none;stroke:#00AAAA;stroke-width:16;stroke-miterlimit:10;}
</style>
<rect x="0" class="st0" width="1200" height="1200"/>
<g>
	<g>
		<g>
			<defs>
				<path id="SVGID_1_" d="M161.8,1086h876.5c26.4,0,47.8-21.4,47.8-47.8V161.8c0-26.4-21.4-47.8-47.8-47.8H161.8
					c-26.4,0-47.8,21.4-47.8,47.8v876.5C114,1064.6,135.4,1086,161.8,1086z"/>
			</defs>
			<clipPath id="SVGID_00000123443334456459984840000016684151868795457693_">
				<use xlink:href="#SVGID_1_"  style="overflow:visible;"/>
			</clipPath>
			<g style="clip-path:url(#SVGID_00000123443334456459984840000016684151868795457693_);">
				<polygon class="st2" points="784.2,549.9 666.5,667.5 431.2,432.2 78.2,902.9 88.4,1086 1137.2,1081.9 1137.2,902.9 				"/>
				<circle class="st2" cx="873.7" cy="336.5" r="120.2"/>
			</g>
		</g>
	</g>
</g>
<path class="st3" d="M161.8,1086h876.5c26.4,0,47.8-21.4,47.8-47.8V161.8c0-26.4-21.4-47.8-47.8-47.8H161.8
	c-26.4,0-47.8,21.4-47.8,47.8v876.5C114,1064.6,135.4,1086,161.8,1086z"/>
<path class="st2" d="M1162.7,1068.9h-23.4V951.7h23.4V811h-23.4v-46.9h23.4v-93.8h-23.4v-46.9h23.4V482.8h-23.4v-70.3h23.4V295.2
	h-23.4v-70.3h23.4v-93.8h-23.4v-23.4h23.4V37.3h-70.3v23.4H928.2V37.3H740.7v23.4h-46.9v23.4h-23.4V60.7h-23.4V37.3h-70.3v23.4
	h-23.4V37.3h-70.3v46.9h-23.4V60.7h-23.4V37.3h-70.3v23.4h-70.3v23.4h-46.9V60.7H84.2V37.3H37.1l0.2,46.9h23.4v46.9H37.3v93.8h23.4
	v93.8h23.4v23.4H60.7v117.2H37.3v70.3h23.4v140.7H37.3v70.3h23.4v23.4h23.4v23.4H60.7V811H37.3v187.6h23.4v46.9H37.3v70.3h23.4v23.4
	h46.9v-23.4h46.9v23.4H178v23.4h93.8v-23.4h46.9v-23.4h46.9v23.4h70.3v-23.4h46.9v46.9h140.7v-23.4h23.4v23.4h70.3v-23.4h23.4v23.4
	h211v-23.4h117.2v23.4h46.9v-23.4h47L1162.7,1068.9z M1086,1038.2c0,26.4-21.4,47.8-47.8,47.8H161.8c-26.4,0-47.8-21.4-47.8-47.8
	V161.8c0-26.4,21.4-47.8,47.8-47.8h876.5c26.4,0,47.8,21.4,47.8,47.8V1038.2z"/>
</svg>
