<?xml version="1.0" encoding="utf-8"?>
<!-- Generator: Adobe Illustrator 27.6.1, SVG Export Plug-In . SVG Version: 6.00 Build 0)  -->
<svg version="1.1" id="Layer_1" xmlns="http://www.w3.org/2000/svg" xmlns:xlink="http://www.w3.org/1999/xlink" x="0px" y="0px"
	 viewBox="0 0 1200 1200" style="enable-background:new 0 0 1200 1200;" xml:space="preserve">
<style type="text/css">
	.st0{fill:#AA00AA;}
</style>
<g>
	<path class="st0" d="M192.27,419.49L192.27,419.49c-50.1,0-90.71-40.61-90.71-90.71v0c0-50.1,40.61-90.71,90.71-90.71h0
		c50.1,0,90.71,40.61,90.71,90.71v0C282.98,378.88,242.37,419.49,192.27,419.49z"/>
	<path class="st0" d="M190.46,689.8L190.46,689.8c-50.1,0-90.71-40.61-90.71-90.71v0c0-50.1,40.61-90.71,90.71-90.71h0
		c50.1,0,90.71,40.61,90.71,90.71v0C281.16,649.19,240.55,689.8,190.46,689.8z"/>
	<path class="st0" d="M192.27,961.92L192.27,961.92c-50.1,0-90.71-40.61-90.71-90.71v0c0-50.1,40.61-90.71,90.71-90.71h0
		c50.1,0,90.71,40.61,90.71,90.71v0C282.98,921.31,242.37,961.92,192.27,961.92z"/>
	<path class="st0" d="M1007.73,419.49H464.39c-50.1,0-90.71-40.61-90.71-90.71v0c0-50.1,40.61-90.71,90.71-90.71h543.34
		c50.1,0,90.71,40.61,90.71,90.71v0C1098.44,378.88,1057.82,419.49,1007.73,419.49z"/>
	<path class="st0" d="M1007.73,689.8H462.58c-50.1,0-90.71-40.61-90.71-90.71v0c0-50.1,40.61-90.71,90.71-90.71h545.15
		c50.1,0,90.71,40.61,90.71,90.71v0C1098.44,649.19,1057.82,689.8,1007.73,689.8z"/>
	<path class="st0" d="M1009.54,961.92H464.39c-50.1,0-90.71-40.61-90.71-90.71v0c0-50.1,40.61-90.71,90.71-90.71h545.15
		c50.1,0,90.71,40.61,90.71,90.71v0C1100.25,921.31,1059.64,961.92,1009.54,961.92z"/>
</g>
</svg>
