<?xml version="1.0" encoding="utf-8"?>
<!-- Generator: Adobe Illustrator 27.3.1, SVG Export Plug-In . SVG Version: 6.00 Build 0)  -->
<svg version="1.1" id="Layer_1" xmlns="http://www.w3.org/2000/svg" xmlns:xlink="http://www.w3.org/1999/xlink" x="0px" y="0px"
	 viewBox="0 0 700 700" style="enable-background:new 0 0 700 700;" xml:space="preserve">
<style type="text/css">
	.st0{fill:#AA00AA;stroke:#AA00AA;stroke-width:16;stroke-miterlimit:10;}
	.st1{fill:#AA00AA;}
</style>
<g>
	<path class="st0" d="M559.2,190.4H255.8c-10.4,0-20,5.6-25.3,14.6c-5.2,9-5.2,20.1,0,29.2c5.2,9,14.8,14.6,25.3,14.6h303.3
		c10.4,0,20-5.6,25.3-14.6c5.2-9,5.2-20.1,0-29.2C579.2,196,569.6,190.4,559.2,190.4z"/>
	<path class="st1" d="M193.3,219.6c0,22.6-18.3,40.8-40.8,40.8s-40.8-18.3-40.8-40.8s18.3-40.8,40.8-40.8S193.3,197,193.3,219.6"/>
	<path class="st0" d="M559.2,320.8H255.8c-10.4,0-20,5.6-25.3,14.6c-5.2,9-5.2,20.1,0,29.2c5.2,9,14.8,14.6,25.3,14.6h303.3
		c10.4,0,20-5.6,25.3-14.6c5.2-9,5.2-20.1,0-29.2C579.2,326.4,569.6,320.8,559.2,320.8L559.2,320.8z"/>
	<path class="st1" d="M193.3,350c0,22.6-18.3,40.8-40.8,40.8s-40.8-18.3-40.8-40.8s18.3-40.8,40.8-40.8S193.3,327.4,193.3,350"/>
	<path class="st0" d="M588.3,480.4c0-7.7-3.1-15.2-8.5-20.6c-5.5-5.5-12.9-8.5-20.6-8.5H255.8c-10.4,0-20,5.6-25.3,14.6
		c-5.2,9-5.2,20.1,0,29.2c5.2,9,14.8,14.6,25.3,14.6h303.3c7.7,0,15.2-3.1,20.6-8.5C585.3,495.6,588.3,488.2,588.3,480.4z"/>
	<path class="st1" d="M193.3,480.4c0,22.6-18.3,40.8-40.8,40.8s-40.8-18.3-40.8-40.8s18.3-40.8,40.8-40.8S193.3,457.9,193.3,480.4"
		/>
</g>
</svg>
