<?xml version="1.0" encoding="utf-8"?>
<!-- Generator: Adobe Illustrator 27.6.1, SVG Export Plug-In . SVG Version: 6.00 Build 0)  -->
<svg version="1.1" id="Layer_1" xmlns="http://www.w3.org/2000/svg" xmlns:xlink="http://www.w3.org/1999/xlink" x="0px" y="0px"
	 viewBox="0 0 1200 1200" style="enable-background:new 0 0 1200 1200;" xml:space="preserve">
<style type="text/css">
	.st0{fill:#00AAAA;}
</style>
<polygon class="st0" points="-1000,325 -875,325 -875,225 -825,225 -825,325 -625,325 -625,425 -475,425 -475,325 -375,325 
	-375,225 -325,225 -325,425 -200,425 -200,900 -1000,900 "/>
<polygon class="st0" points="-200,300 -212,313 -212,400 -300,400 -300,200 -400,200 -400,300 -500,300 -500,400 -600,400 -600,300 
	-800,300 -800,200 -900,200 -900,300 -1000,300 -1000,100 -200,100 "/>
<polygon class="st0" points="-1000,1425 -988,1438 -988,1325 -875,1325 -875,1225 -825,1225 -825,1325 -625,1325 -625,1425 
	-475,1425 -475,1325 -375,1325 -375,1225 -325,1225 -325,1425 -200,1425 -200,1900 -1000,1900 "/>
<polygon class="st0" points="-200,1400 -300,1400 -300,1200 -400,1200 -400,1300 -500,1300 -500,1400 -600,1400 -600,1300 
	-800,1300 -800,1200 -900,1200 -900,1300 -1000,1300 -1000,1100 -200,1100 "/>
<polygon class="st0" points="-1000,1425 -988,1438 -988,1325 -875,1325 -875,1225 -825,1225 -825,1325 -625,1325 -625,1425 
	-475,1425 -475,1325 -375,1325 -375,1225 -325,1225 -325,1425 -200,1425 -200,1900 -1000,1900 "/>
<polygon class="st0" points="-200,1400 -300,1400 -300,1200 -400,1200 -400,1300 -500,1300 -500,1400 -600,1400 -600,1300 
	-800,1300 -800,1200 -900,1200 -900,1300 -1000,1300 -1000,1100 -200,1100 "/>
<polygon class="st0" points="600,575 1049.04,311.94 600,52.69 150.96,311.94 "/>
<g>
	<path class="st0" d="M600,784.1c2.69,1.78,4.04,2.67,6.74,4.44c0-24.24,0-48.48,0-72.71c21.14-12.33,42.28-24.67,63.42-37
		c0-21.47,0-42.94,0-64.41c9.35-5.47,18.71-10.94,28.07-16.4c0,21.48,0,42.96,0,64.44c37.42-21.83,74.84-43.67,112.26-65.5
		c0,21.52,0,43.04,0,64.56c28.07-16.35,56.13-32.69,84.2-49.04c0-21.55,0-43.1,0-64.65c18.71-10.92,37.42-21.83,56.13-32.75
		c0-21.57,0-43.14,0-64.71c9.36-5.47,18.71-10.94,28.07-16.4c0,43.16,0,86.32,0,129.48c23.39-13.62,46.77-27.24,70.16-40.86
		c0,102.62,0,205.25,0,307.87C899.36,916.87,749.68,1003.29,600,1089.71C600,987.84,600,885.97,600,784.1z"/>
	<path class="st0" d="M1049.04,506.38c-18.71,10.9-37.42,21.8-56.13,32.7c0-43.17,0-86.34,0-129.51
		c-18.71,10.94-37.42,21.88-56.13,32.82c0,21.56,0,43.13,0,64.69c-18.71,10.92-37.42,21.84-56.13,32.76c0,21.55,0,43.09,0,64.64
		c-18.71,10.9-37.42,21.8-56.13,32.71c0-21.53,0-43.05,0-64.58c-37.42,21.84-74.84,43.69-112.27,65.53c0-21.49,0-42.97,0-64.46
		c-18.71,10.94-37.42,21.88-56.13,32.82c0,21.47,0,42.93,0,64.4c-18.71,10.92-37.42,21.84-56.13,32.76c0-42.89,0-85.78,0-128.67
		c149.68-87.69,299.36-175.37,449.04-263.06C1049.04,376.76,1049.04,441.57,1049.04,506.38z"/>
</g>
<g>
	<path class="st0" d="M150.96,457.77c23.39,13.64,46.77,27.29,70.16,40.93c0-21.58,0-43.16,0-64.74
		c9.35,5.47,18.71,10.94,28.07,16.4c0,21.57,0,43.14,0,64.71c37.42,21.83,74.84,43.67,112.26,65.5c0,21.53,0,43.06,0,64.59
		c28.07,16.35,56.13,32.69,84.2,49.04c0-21.5,0-43,0-64.5c18.71,10.92,37.42,21.83,56.13,32.75c0-21.48,0-42.96,0-64.44
		c9.36,5.47,18.71,10.94,28.06,16.4c0,42.94,0,85.89,0,128.83c23.39,13.62,46.77,27.24,70.16,40.86c0,101.87,0,203.74,0,305.61
		c-149.68-86.42-299.36-172.84-449.04-259.26C150.96,706.23,150.96,582,150.96,457.77z"/>
	<path class="st0" d="M600,703.67c-2.69,1.77-4.04,2.66-6.74,4.43c0,18.66,0,37.32,0,55.98c-16.46-9.59-32.93-19.19-49.39-28.78
		c0-42.93,0-85.87,0-128.8c-18.71-10.94-37.42-21.88-56.13-32.82c0,21.49,0,42.97,0,64.46c-18.71-10.92-37.42-21.84-56.13-32.76
		c0,21.51,0,43.01,0,64.52c-18.71-10.9-37.42-21.8-56.13-32.71c0-21.53,0-43.05,0-64.58c-37.42-21.84-74.84-43.69-112.27-65.53
		c0-21.56,0-43.13,0-64.69c-18.71-10.94-37.42-21.88-56.13-32.82c0,21.58,0,43.17,0,64.75c-18.71-10.92-37.42-21.84-56.13-32.76
		c0-43.21,0-86.42,0-129.62C300.64,399.63,450.32,487.31,600,575C600,617.89,600,660.78,600,703.67z"/>
</g>
</svg>
