<?xml version="1.0" encoding="utf-8"?>
<!-- Generator: Adobe Illustrator 27.6.1, SVG Export Plug-In . SVG Version: 6.00 Build 0)  -->
<svg version="1.1" id="Layer_1" xmlns="http://www.w3.org/2000/svg" xmlns:xlink="http://www.w3.org/1999/xlink" x="0px" y="0px"
	 viewBox="0 0 1200 1200" style="enable-background:new 0 0 1200 1200;" xml:space="preserve">
<style type="text/css">
	.st0{fill:#00AAAA;}
</style>
<g>
	<path class="st0" d="M649.12,578.83c47.36,55.25-13.15,105.24-13.15,105.24S759.62,620.93,701.74,542s-92.08-110.5,126.29-236.79
		C828.03,302.58,483.37,389.41,649.12,578.83 M701.74,100c0,0,105.24,105.24-99.98,263.1c-163.12,128.92-36.83,202.58,0,286.77
		c-94.71-86.82-165.75-160.49-118.39-231.52C554.41,313.11,743.84,263.12,701.74,100"/>
	<path class="st0" d="M470.22,873.5c0,0-39.46,21.05,26.31,28.94c65.77,7.89,121.02,7.89,207.85-7.89
		c17.64,10.32,36.12,19.12,55.25,26.31C564.93,1005.05,314.99,918.23,470.22,873.5 M446.54,763c0,0-42.1,31.57,23.68,39.46
		s152.6,10.52,268.36-13.15c12.01,11.65,26.36,20.61,42.1,26.31C541.25,884.02,275.53,820.88,446.54,763 M906.95,955.06
		c0,0,28.94,23.68-31.57,42.1c-113.13,34.2-470.94,44.73-570.92,2.63c-36.83-15.79,39.46-44.73,86.82-44.73
		c-44.73-26.31-257.83,55.25-110.5,78.93C683.32,1097.13,1012.19,1002.42,906.95,955.06 M488.63,649.87c0,0-181.54,42.1-65.77,57.88
		c49.99,7.89,149.96,5.26,242.05-2.63s149.96-21.05,149.96-21.05c-15.51,6.7-30.46,14.62-44.73,23.68
		c-184.17,47.36-541.98,26.31-439.37-23.68C433.38,634.08,488.63,649.87,488.63,649.87 M814.87,831.41
		c192.06-97.35,102.61-210.48,18.42-173.64c94.71-78.93,265.73,94.71-23.68,178.9v-5.26 M507.05,1097.13
		c181.54,10.52,457.79-5.26,463.05-92.08c0,0-13.15,31.57-149.96,57.88s-344.66,26.31-457.79,7.89
		C364.98,1070.82,388.66,1089.24,507.05,1097.13"/>
</g>
</svg>
