<?xml version="1.0" encoding="utf-8"?>
<!-- Generator: Adobe Illustrator 27.6.1, SVG Export Plug-In . SVG Version: 6.00 Build 0)  -->
<svg version="1.1" id="Layer_1" xmlns="http://www.w3.org/2000/svg" xmlns:xlink="http://www.w3.org/1999/xlink" x="0px" y="0px"
	 viewBox="0 0 1200 1200" style="enable-background:new 0 0 1200 1200;" xml:space="preserve">
<style type="text/css">
	.st0{fill:#00AAAA;}
</style>
<path class="st0" d="M1067.5,160h-935C86.93,160,50,196.93,50,242.5v495c0,45.57,36.93,82.5,82.5,82.5H435v110h-55
	c-30.38,0-55,24.62-55,55l0,0c0,30.38,24.62,55,55,55h440c30.38,0,55-24.62,55-55l0,0c0-30.38-24.62-55-55-55h-55V820h302.5
	c45.57,0,82.5-36.93,82.5-82.5v-495C1150,196.93,1113.07,160,1067.5,160z M1094.27,710c0,30.38-24.62,55-55,55H160.73
	c-30.38,0-55-24.62-55-55V270c0-30.38,24.62-55,55-55h878.53c30.38,0,55,24.62,55,55L1094.27,710L1094.27,710z"/>
</svg>
