<?xml version="1.0" encoding="utf-8"?>
<!-- Generator: Adobe Illustrator 27.6.1, SVG Export Plug-In . SVG Version: 6.00 Build 0)  -->
<svg version="1.1" id="Layer_1" xmlns="http://www.w3.org/2000/svg" xmlns:xlink="http://www.w3.org/1999/xlink" x="0px" y="0px"
	 viewBox="0 0 1200 1200" style="enable-background:new 0 0 1200 1200;" xml:space="preserve">
<style type="text/css">
	.st0{fill:#00AAAA;stroke:#00AAAA;stroke-width:50;stroke-linejoin:round;stroke-miterlimit:10;}
</style>
<path class="st0" d="M600,100c-276,0-499.75,223.86-499.75,500S324,1100,600,1100s499.75-223.86,499.75-500S876,100,600,100z
	 M1074.61,588H850.12c-1.36-73.42-14.66-143.92-38.05-209.64c52.03-24.43,99.17-57.57,139.52-97.55
	C1025.63,362.39,1071.68,469.84,1074.61,588z M613.69,1074.8c-0.31,0.01-0.63,0.02-0.94,0.03V800.66
	c59.21,1.53,115.72,13.92,167.62,35.23C743.74,928.04,686.23,1009.61,613.69,1074.8z M420.13,835.89
	c51.9-21.31,108.41-33.69,167.62-35.23v274.18c-0.31-0.01-0.62-0.02-0.94-0.03C514.27,1009.63,456.77,928.04,420.13,835.89z
	 M612.75,125.35c72.96,65.3,130.8,147.16,167.59,239.67c-51.89,21.34-108.39,33.75-167.59,35.31V125.35z M587.75,125.35v274.99
	c-59.22-1.5-115.74-13.86-167.66-35.15C456.88,272.62,514.74,190.7,587.75,125.35z M587.75,425.35V588H375.39
	c1.34-69.78,13.89-136.81,35.93-199.37C465.97,410.94,525.44,423.85,587.75,425.35z M587.75,613v162.66
	c-62.3,1.53-121.76,14.47-176.4,36.81c-22.06-62.59-34.63-129.65-35.97-199.46H587.75z M612.75,775.66V613h212.36
	c-1.34,69.81-13.91,136.88-35.97,199.47C734.51,790.13,675.05,777.19,612.75,775.66z M612.75,588V425.34
	c62.29-1.56,121.75-14.53,176.38-36.89c22.08,62.61,34.65,129.71,35.99,199.55H612.75z M803.21,354.89
	c-34.37-86.06-86.27-163.22-151.28-227.07c109.67,11.94,208.13,61.24,282.38,134.93C896.36,300.41,852.08,331.7,803.21,354.89z
	 M548.65,127.75c-65.1,63.92-117.06,141.17-151.45,227.34c-49.03-23.21-93.46-54.57-131.52-92.35
	C340.07,188.93,438.75,139.58,548.65,127.75z M248.4,280.81c40.47,40.09,87.75,73.3,139.95,97.75
	c-23.34,65.66-36.62,136.09-37.97,209.44H125.39C128.32,469.84,174.37,362.39,248.4,280.81z M125.42,613h224.96
	c1.36,73.38,14.64,143.85,38,209.54c-51.96,24.37-99.05,57.43-139.38,97.3C174.83,838.42,128.59,731.08,125.42,613z M397.24,846.01
	c34.19,85.63,85.73,162.45,150.27,226.12c-109.14-12.01-207.14-61.04-281.2-134.25C304.24,900.33,348.45,869.13,397.24,846.01z
	 M653.06,1072.06C717.57,1008.4,769.08,931.6,803.26,846c48.68,23.07,92.81,54.18,130.68,91.62
	C859.98,1010.85,762.09,1059.93,653.06,1072.06z M951.23,919.59c-40.28-39.76-87.27-72.72-139.12-97.05
	c23.37-65.69,36.65-136.16,38.01-209.54h224.46C1071.42,730.96,1025.26,838.19,951.23,919.59z"/>
</svg>
