<?xml version="1.0" encoding="utf-8"?>
<!-- Generator: Adobe Illustrator 27.6.1, SVG Export Plug-In . SVG Version: 6.00 Build 0)  -->
<svg version="1.1" id="Layer_1" xmlns="http://www.w3.org/2000/svg" xmlns:xlink="http://www.w3.org/1999/xlink" x="0px" y="0px"
	 viewBox="0 0 1200 1200" style="enable-background:new 0 0 1200 1200;" xml:space="preserve">
<style type="text/css">
	.st0{fill:#00AAAA;}
</style>
<path class="st0" d="M1166.78,292.51L1166.78,292.51c-27.83-11.94-60.06,0.94-72,28.76l-34.87,81.26
	C980.65,197.31,781.46,51.73,548.27,51.73C247.02,51.73,2.52,294.69,0.02,595.35c-2.52,302.78,245.47,552.92,548.26,552.92
	c222.75,0,414.47-132.83,500.28-323.61c13.92-30.96-3.53-67-36.4-75.47l0,0c-25.95-6.68-52.79,6.42-63.8,30.84
	c-68.24,151.4-219.89,257.11-396.39,258.56c-242.74,1.99-441.84-195.01-442.3-437.75c-0.46-242.63,196.09-439.47,438.62-439.47
	c186.26,0,345.38,116.1,408.99,279.88l-78.51-33.69c-27.83-11.94-60.06,0.94-72,28.76l0,0c-11.94,27.83,0.94,60.06,28.76,72
	l151.15,64.86l50.38,21.62c27.83,11.94,60.06-0.94,72-28.76l86.48-201.54C1207.48,336.69,1194.61,304.45,1166.78,292.51z"/>
</svg>
