<?xml version="1.0" encoding="utf-8"?>
<!-- Generator: Adobe Illustrator 27.6.1, SVG Export Plug-In . SVG Version: 6.00 Build 0)  -->
<svg version="1.1" id="Layer_1" xmlns="http://www.w3.org/2000/svg" xmlns:xlink="http://www.w3.org/1999/xlink" x="0px" y="0px"
	 viewBox="0 0 1200 1200" style="enable-background:new 0 0 1200 1200;" xml:space="preserve">
<style type="text/css">
	.st0{fill:#00AAAA;}
</style>
<polygon class="st0" points="742.85,171.43 742.85,100 457.14,100 457.14,171.43 385.71,171.43 385.71,671.43 457.14,671.43 
	457.14,742.86 742.85,742.86 742.85,671.43 814.28,671.43 814.28,171.43 "/>
<polygon class="st0" points="957.14,528.57 885.71,528.57 885.71,671.43 814.29,671.43 814.29,742.86 742.86,742.86 742.86,814.29 
	457.14,814.29 457.14,742.86 385.72,742.86 385.72,671.43 314.29,671.43 314.29,528.57 242.86,528.57 242.86,742.86 314.29,742.86 
	314.29,814.29 385.71,814.29 385.71,885.72 457.14,885.72 528.57,885.72 528.57,1028.57 385.71,1028.57 385.71,1100 814.28,1100 
	814.28,1028.57 671.43,1028.57 671.43,885.72 742.86,885.72 814.28,885.72 814.29,885.72 814.29,814.29 885.72,814.29 
	885.72,742.86 957.14,742.86 "/>
</svg>
