<?xml version="1.0" encoding="utf-8"?>
<!-- Generator: Adobe Illustrator 27.6.1, SVG Export Plug-In . SVG Version: 6.00 Build 0)  -->
<svg version="1.1" id="Layer_1" xmlns="http://www.w3.org/2000/svg" xmlns:xlink="http://www.w3.org/1999/xlink" x="0px" y="0px"
	 viewBox="0 0 1200 1200" style="enable-background:new 0 0 1200 1200;" xml:space="preserve">
<style type="text/css">
	.st0{fill:#00AAAA;}
</style>
<path class="st0" d="M599.41,800L599.41,800c-110.78,0-200.59-89.81-200.59-200.59V331.94c0-110.78,89.81-200.59,200.59-200.59l0,0
	c110.78,0,200.59,89.81,200.59,200.59V599.4C800.01,710.19,710.2,800,599.41,800z"/>
<path class="st0" d="M316.07,600.36c-21.49,0-38.07,18.82-35.47,40.15c19.36,158.69,154.06,281.05,318.1,281.05
	c163.35,0,300.03-121.97,320.65-279.78c2.87-21.96-14.28-41.43-36.42-41.44l0,0c-18.43-0.01-34.09,13.64-36.42,31.93
	c-15.67,122.91-120.64,217.92-247.8,217.92c-127.45,0-232-95.44-247.21-218.74C349.3,613.63,334.01,600.36,316.07,600.36
	L316.07,600.36z"/>
<rect x="563.73" y="885.87" class="st0" width="71.38" height="142.76"/>
<path class="st0" d="M777.86,1100H420.97c-19.71,0-35.69-15.98-35.69-35.69l0,0c0-19.71,15.98-35.69,35.69-35.69h356.89
	c19.71,0,35.69,15.98,35.69,35.69l0,0C813.55,1084.02,797.57,1100,777.86,1100z"/>
</svg>
